<mxfile host="app.diagrams.net" agent="Mozilla/5.0 (Windows NT 10.0; Win64; x64) AppleWebKit/537.36 (KHTML, like Gecko) Chrome/129.0.0.0 Safari/537.36 Edg/129.0.0.0" version="24.8.0">
  <diagram name="Page-1" id="e7e014a7-5840-1c2e-5031-d8a46d1fe8dd">
    <mxGraphModel dx="570" dy="2058" grid="1" gridSize="10" guides="1" tooltips="1" connect="1" arrows="1" fold="1" page="1" pageScale="1" pageWidth="1169" pageHeight="826" background="none" math="0" shadow="0">
      <root>
        <mxCell id="0" />
        <mxCell id="1" parent="0" />
        <mxCell id="CaTFyqgx49hb_BPLu5yh-73" value="" style="whiteSpace=wrap;html=1;aspect=fixed;" vertex="1" parent="1">
          <mxGeometry x="300" y="-135" width="695" height="695" as="geometry" />
        </mxCell>
        <mxCell id="CaTFyqgx49hb_BPLu5yh-74" value="API Gateway" style="text;strokeColor=none;align=center;fillColor=none;html=1;verticalAlign=middle;whiteSpace=wrap;rounded=0;fontSize=16;" vertex="1" parent="1">
          <mxGeometry x="300" y="-130" width="110" height="30" as="geometry" />
        </mxCell>
        <mxCell id="CaTFyqgx49hb_BPLu5yh-75" value="Actor" style="shape=umlActor;verticalLabelPosition=bottom;verticalAlign=top;html=1;" vertex="1" parent="1">
          <mxGeometry x="235" y="260" width="30" height="60" as="geometry" />
        </mxCell>
        <mxCell id="CaTFyqgx49hb_BPLu5yh-76" value="Cliente" style="text;strokeColor=none;align=center;fillColor=none;html=1;verticalAlign=middle;whiteSpace=wrap;rounded=0;fontSize=16;" vertex="1" parent="1">
          <mxGeometry x="220" y="230" width="60" height="30" as="geometry" />
        </mxCell>
        <mxCell id="CaTFyqgx49hb_BPLu5yh-83" style="edgeStyle=none;curved=1;rounded=0;orthogonalLoop=1;jettySize=auto;html=1;fontSize=12;startSize=8;endSize=8;entryX=0;entryY=0.5;entryDx=0;entryDy=0;" edge="1" parent="1" source="CaTFyqgx49hb_BPLu5yh-77" target="CaTFyqgx49hb_BPLu5yh-82">
          <mxGeometry relative="1" as="geometry">
            <mxPoint x="520" y="270" as="targetPoint" />
          </mxGeometry>
        </mxCell>
        <mxCell id="CaTFyqgx49hb_BPLu5yh-105" style="edgeStyle=none;curved=1;rounded=0;orthogonalLoop=1;jettySize=auto;html=1;exitX=1;exitY=1;exitDx=0;exitDy=0;entryX=0;entryY=0.5;entryDx=0;entryDy=0;fontSize=12;startSize=8;endSize=8;" edge="1" parent="1" source="CaTFyqgx49hb_BPLu5yh-77" target="CaTFyqgx49hb_BPLu5yh-104">
          <mxGeometry relative="1" as="geometry" />
        </mxCell>
        <mxCell id="CaTFyqgx49hb_BPLu5yh-127" style="edgeStyle=none;curved=1;rounded=0;orthogonalLoop=1;jettySize=auto;html=1;entryX=0;entryY=0.5;entryDx=0;entryDy=0;fontSize=12;startSize=8;endSize=8;" edge="1" parent="1" source="CaTFyqgx49hb_BPLu5yh-77" target="CaTFyqgx49hb_BPLu5yh-126">
          <mxGeometry relative="1" as="geometry" />
        </mxCell>
        <mxCell id="CaTFyqgx49hb_BPLu5yh-132" style="edgeStyle=none;curved=1;rounded=0;orthogonalLoop=1;jettySize=auto;html=1;exitX=0;exitY=0;exitDx=0;exitDy=0;entryX=0;entryY=0.5;entryDx=0;entryDy=0;fontSize=12;startSize=8;endSize=8;" edge="1" parent="1" source="CaTFyqgx49hb_BPLu5yh-77" target="CaTFyqgx49hb_BPLu5yh-131">
          <mxGeometry relative="1" as="geometry" />
        </mxCell>
        <mxCell id="CaTFyqgx49hb_BPLu5yh-151" style="edgeStyle=none;curved=1;rounded=0;orthogonalLoop=1;jettySize=auto;html=1;entryX=1;entryY=0.5;entryDx=0;entryDy=0;fontSize=12;startSize=8;endSize=8;" edge="1" parent="1" source="CaTFyqgx49hb_BPLu5yh-77" target="CaTFyqgx49hb_BPLu5yh-149">
          <mxGeometry relative="1" as="geometry" />
        </mxCell>
        <mxCell id="CaTFyqgx49hb_BPLu5yh-158" style="edgeStyle=none;curved=1;rounded=0;orthogonalLoop=1;jettySize=auto;html=1;fontSize=12;startSize=8;endSize=8;" edge="1" parent="1" source="CaTFyqgx49hb_BPLu5yh-77">
          <mxGeometry relative="1" as="geometry">
            <mxPoint x="490" y="370" as="targetPoint" />
          </mxGeometry>
        </mxCell>
        <mxCell id="CaTFyqgx49hb_BPLu5yh-77" value="Recibir solicitudes" style="ellipse;whiteSpace=wrap;html=1;" vertex="1" parent="1">
          <mxGeometry x="430" y="240" width="80" height="60" as="geometry" />
        </mxCell>
        <mxCell id="CaTFyqgx49hb_BPLu5yh-78" style="edgeStyle=none;curved=1;rounded=0;orthogonalLoop=1;jettySize=auto;html=1;entryX=0.027;entryY=0.63;entryDx=0;entryDy=0;entryPerimeter=0;fontSize=12;startSize=8;endSize=8;" edge="1" parent="1" target="CaTFyqgx49hb_BPLu5yh-77">
          <mxGeometry relative="1" as="geometry">
            <mxPoint x="280" y="280" as="sourcePoint" />
          </mxGeometry>
        </mxCell>
        <mxCell id="CaTFyqgx49hb_BPLu5yh-95" style="edgeStyle=none;curved=1;rounded=0;orthogonalLoop=1;jettySize=auto;html=1;exitX=1;exitY=0;exitDx=0;exitDy=0;fontSize=12;startSize=8;endSize=8;" edge="1" parent="1" source="CaTFyqgx49hb_BPLu5yh-80" target="CaTFyqgx49hb_BPLu5yh-94">
          <mxGeometry relative="1" as="geometry" />
        </mxCell>
        <mxCell id="CaTFyqgx49hb_BPLu5yh-80" value="Transformar solicitudes" style="ellipse;whiteSpace=wrap;html=1;" vertex="1" parent="1">
          <mxGeometry x="570" y="200" width="70" height="60" as="geometry" />
        </mxCell>
        <mxCell id="CaTFyqgx49hb_BPLu5yh-82" value="&amp;lt;ext&amp;gt;" style="text;strokeColor=none;align=center;fillColor=none;html=1;verticalAlign=middle;whiteSpace=wrap;rounded=0;fontSize=12;rotation=-30;" vertex="1" parent="1">
          <mxGeometry x="530" y="250" width="30" height="20" as="geometry" />
        </mxCell>
        <mxCell id="CaTFyqgx49hb_BPLu5yh-84" style="edgeStyle=none;curved=1;rounded=0;orthogonalLoop=1;jettySize=auto;html=1;exitX=0;exitY=0.5;exitDx=0;exitDy=0;fontSize=12;startSize=8;endSize=8;" edge="1" parent="1" source="CaTFyqgx49hb_BPLu5yh-82" target="CaTFyqgx49hb_BPLu5yh-82">
          <mxGeometry relative="1" as="geometry" />
        </mxCell>
        <mxCell id="CaTFyqgx49hb_BPLu5yh-85" style="edgeStyle=none;curved=1;rounded=0;orthogonalLoop=1;jettySize=auto;html=1;exitX=1;exitY=0.5;exitDx=0;exitDy=0;entryX=0.037;entryY=0.727;entryDx=0;entryDy=0;entryPerimeter=0;fontSize=12;startSize=8;endSize=8;" edge="1" parent="1" source="CaTFyqgx49hb_BPLu5yh-82" target="CaTFyqgx49hb_BPLu5yh-80">
          <mxGeometry relative="1" as="geometry" />
        </mxCell>
        <mxCell id="CaTFyqgx49hb_BPLu5yh-86" value="" style="ellipse;whiteSpace=wrap;html=1;" vertex="1" parent="1">
          <mxGeometry x="720" y="260" width="80" height="60" as="geometry" />
        </mxCell>
        <mxCell id="CaTFyqgx49hb_BPLu5yh-93" style="edgeStyle=none;curved=1;rounded=0;orthogonalLoop=1;jettySize=auto;html=1;exitX=1;exitY=1;exitDx=0;exitDy=0;fontSize=12;startSize=8;endSize=8;" edge="1" parent="1" source="CaTFyqgx49hb_BPLu5yh-87" target="CaTFyqgx49hb_BPLu5yh-86">
          <mxGeometry relative="1" as="geometry" />
        </mxCell>
        <mxCell id="CaTFyqgx49hb_BPLu5yh-87" value="&amp;lt;inc&amp;gt;" style="text;strokeColor=none;align=center;fillColor=none;html=1;verticalAlign=middle;whiteSpace=wrap;rounded=0;fontSize=12;rotation=0;" vertex="1" parent="1">
          <mxGeometry x="680" y="250" width="30" height="10" as="geometry" />
        </mxCell>
        <mxCell id="CaTFyqgx49hb_BPLu5yh-88" value="" style="endArrow=classic;html=1;rounded=0;fontSize=12;startSize=8;endSize=8;curved=1;exitX=0.95;exitY=0.736;exitDx=0;exitDy=0;exitPerimeter=0;entryX=-0.043;entryY=0.419;entryDx=0;entryDy=0;entryPerimeter=0;" edge="1" parent="1" source="CaTFyqgx49hb_BPLu5yh-80" target="CaTFyqgx49hb_BPLu5yh-87">
          <mxGeometry width="50" height="50" relative="1" as="geometry">
            <mxPoint x="660" y="260" as="sourcePoint" />
            <mxPoint x="670" y="250" as="targetPoint" />
          </mxGeometry>
        </mxCell>
        <mxCell id="CaTFyqgx49hb_BPLu5yh-90" value="&lt;span style=&quot;font-size: 12px;&quot;&gt;Transformar de HTTP a HTTPS&lt;/span&gt;" style="text;strokeColor=none;align=center;fillColor=none;html=1;verticalAlign=middle;whiteSpace=wrap;rounded=0;fontSize=8;" vertex="1" parent="1">
          <mxGeometry x="732.5" y="277.5" width="55" height="25" as="geometry" />
        </mxCell>
        <mxCell id="CaTFyqgx49hb_BPLu5yh-94" value="&amp;lt;inc&amp;gt;" style="text;strokeColor=none;align=center;fillColor=none;html=1;verticalAlign=middle;whiteSpace=wrap;rounded=0;fontSize=12;rotation=-45;" vertex="1" parent="1">
          <mxGeometry x="660" y="160" width="30" height="10" as="geometry" />
        </mxCell>
        <mxCell id="CaTFyqgx49hb_BPLu5yh-96" value="Agregar encabezados" style="ellipse;whiteSpace=wrap;html=1;" vertex="1" parent="1">
          <mxGeometry x="680" y="90" width="80" height="60" as="geometry" />
        </mxCell>
        <mxCell id="CaTFyqgx49hb_BPLu5yh-97" style="edgeStyle=none;curved=1;rounded=0;orthogonalLoop=1;jettySize=auto;html=1;exitX=1;exitY=0.5;exitDx=0;exitDy=0;entryX=0.219;entryY=0.956;entryDx=0;entryDy=0;entryPerimeter=0;fontSize=12;startSize=8;endSize=8;" edge="1" parent="1" source="CaTFyqgx49hb_BPLu5yh-94" target="CaTFyqgx49hb_BPLu5yh-96">
          <mxGeometry relative="1" as="geometry" />
        </mxCell>
        <mxCell id="CaTFyqgx49hb_BPLu5yh-99" value="Normalizar URL" style="ellipse;whiteSpace=wrap;html=1;" vertex="1" parent="1">
          <mxGeometry x="620" y="310" width="70" height="57" as="geometry" />
        </mxCell>
        <mxCell id="CaTFyqgx49hb_BPLu5yh-101" value="&amp;lt;inc&amp;gt;" style="text;strokeColor=none;align=center;fillColor=none;html=1;verticalAlign=middle;whiteSpace=wrap;rounded=0;fontSize=12;rotation=75;" vertex="1" parent="1">
          <mxGeometry x="620" y="280" width="30" height="10" as="geometry" />
        </mxCell>
        <mxCell id="CaTFyqgx49hb_BPLu5yh-102" style="edgeStyle=none;curved=1;rounded=0;orthogonalLoop=1;jettySize=auto;html=1;exitX=1;exitY=0.5;exitDx=0;exitDy=0;entryX=0.322;entryY=0.047;entryDx=0;entryDy=0;entryPerimeter=0;fontSize=12;startSize=8;endSize=8;" edge="1" parent="1" source="CaTFyqgx49hb_BPLu5yh-101" target="CaTFyqgx49hb_BPLu5yh-99">
          <mxGeometry relative="1" as="geometry" />
        </mxCell>
        <mxCell id="CaTFyqgx49hb_BPLu5yh-103" style="edgeStyle=none;curved=1;rounded=0;orthogonalLoop=1;jettySize=auto;html=1;entryX=-0.079;entryY=0.541;entryDx=0;entryDy=0;entryPerimeter=0;fontSize=12;startSize=8;endSize=8;" edge="1" parent="1" source="CaTFyqgx49hb_BPLu5yh-80" target="CaTFyqgx49hb_BPLu5yh-101">
          <mxGeometry relative="1" as="geometry" />
        </mxCell>
        <mxCell id="CaTFyqgx49hb_BPLu5yh-107" value="" style="edgeStyle=none;curved=1;rounded=0;orthogonalLoop=1;jettySize=auto;html=1;fontSize=12;startSize=8;endSize=8;" edge="1" parent="1" source="CaTFyqgx49hb_BPLu5yh-104" target="CaTFyqgx49hb_BPLu5yh-106">
          <mxGeometry relative="1" as="geometry" />
        </mxCell>
        <mxCell id="CaTFyqgx49hb_BPLu5yh-104" value="&amp;lt;ext&amp;gt;" style="text;strokeColor=none;align=center;fillColor=none;html=1;verticalAlign=middle;whiteSpace=wrap;rounded=0;fontSize=12;rotation=60;" vertex="1" parent="1">
          <mxGeometry x="510" y="302.5" width="30" height="20" as="geometry" />
        </mxCell>
        <mxCell id="CaTFyqgx49hb_BPLu5yh-116" value="" style="edgeStyle=none;curved=1;rounded=0;orthogonalLoop=1;jettySize=auto;html=1;fontSize=12;startSize=8;endSize=8;" edge="1" parent="1" source="CaTFyqgx49hb_BPLu5yh-106">
          <mxGeometry relative="1" as="geometry">
            <mxPoint x="600" y="410" as="targetPoint" />
          </mxGeometry>
        </mxCell>
        <mxCell id="CaTFyqgx49hb_BPLu5yh-121" style="edgeStyle=none;curved=1;rounded=0;orthogonalLoop=1;jettySize=auto;html=1;entryX=0;entryY=0.5;entryDx=0;entryDy=0;fontSize=12;startSize=8;endSize=8;" edge="1" parent="1" source="CaTFyqgx49hb_BPLu5yh-106" target="CaTFyqgx49hb_BPLu5yh-120">
          <mxGeometry relative="1" as="geometry" />
        </mxCell>
        <mxCell id="CaTFyqgx49hb_BPLu5yh-106" value="" style="ellipse;whiteSpace=wrap;html=1;" vertex="1" parent="1">
          <mxGeometry x="510" y="340" width="100" height="60" as="geometry" />
        </mxCell>
        <mxCell id="CaTFyqgx49hb_BPLu5yh-108" value="&lt;span style=&quot;font-size: 12px;&quot;&gt;AUTH Y AUTORIZACION&lt;/span&gt;" style="text;strokeColor=none;align=center;fillColor=none;html=1;verticalAlign=middle;whiteSpace=wrap;rounded=0;fontSize=8;" vertex="1" parent="1">
          <mxGeometry x="530" y="350" width="60" height="30" as="geometry" />
        </mxCell>
        <mxCell id="CaTFyqgx49hb_BPLu5yh-109" value="&amp;lt;inc&amp;gt;" style="text;strokeColor=none;align=center;fillColor=none;html=1;verticalAlign=middle;whiteSpace=wrap;rounded=0;fontSize=12;rotation=15;" vertex="1" parent="1">
          <mxGeometry x="630" y="390" width="30" height="10" as="geometry" />
        </mxCell>
        <mxCell id="CaTFyqgx49hb_BPLu5yh-110" style="edgeStyle=none;curved=1;rounded=0;orthogonalLoop=1;jettySize=auto;html=1;entryX=-0.072;entryY=0.36;entryDx=0;entryDy=0;entryPerimeter=0;fontSize=12;startSize=8;endSize=8;" edge="1" parent="1" source="CaTFyqgx49hb_BPLu5yh-106" target="CaTFyqgx49hb_BPLu5yh-109">
          <mxGeometry relative="1" as="geometry" />
        </mxCell>
        <mxCell id="CaTFyqgx49hb_BPLu5yh-111" value="JWT" style="ellipse;whiteSpace=wrap;html=1;" vertex="1" parent="1">
          <mxGeometry x="680" y="380" width="50" height="40" as="geometry" />
        </mxCell>
        <mxCell id="CaTFyqgx49hb_BPLu5yh-112" style="edgeStyle=none;curved=1;rounded=0;orthogonalLoop=1;jettySize=auto;html=1;exitX=1;exitY=0.5;exitDx=0;exitDy=0;entryX=-0.029;entryY=0.507;entryDx=0;entryDy=0;entryPerimeter=0;fontSize=12;startSize=8;endSize=8;" edge="1" parent="1" source="CaTFyqgx49hb_BPLu5yh-109" target="CaTFyqgx49hb_BPLu5yh-111">
          <mxGeometry relative="1" as="geometry" />
        </mxCell>
        <mxCell id="CaTFyqgx49hb_BPLu5yh-114" value="&amp;lt;inc&amp;gt;" style="text;strokeColor=none;align=center;fillColor=none;html=1;verticalAlign=middle;whiteSpace=wrap;rounded=0;fontSize=12;rotation=40;" vertex="1" parent="1">
          <mxGeometry x="600" y="420" width="30" height="10" as="geometry" />
        </mxCell>
        <mxCell id="CaTFyqgx49hb_BPLu5yh-115" value="OAuth" style="ellipse;whiteSpace=wrap;html=1;" vertex="1" parent="1">
          <mxGeometry x="635" y="450" width="45" height="43" as="geometry" />
        </mxCell>
        <mxCell id="CaTFyqgx49hb_BPLu5yh-118" value="USER AND PASSWD" style="ellipse;whiteSpace=wrap;html=1;" vertex="1" parent="1">
          <mxGeometry x="540" y="468" width="70" height="52" as="geometry" />
        </mxCell>
        <mxCell id="CaTFyqgx49hb_BPLu5yh-120" value="&amp;lt;inc&amp;gt;" style="text;strokeColor=none;align=center;fillColor=none;html=1;verticalAlign=middle;whiteSpace=wrap;rounded=0;fontSize=12;rotation=90;" vertex="1" parent="1">
          <mxGeometry x="555" y="430" width="30" height="10" as="geometry" />
        </mxCell>
        <mxCell id="CaTFyqgx49hb_BPLu5yh-122" style="edgeStyle=none;curved=1;rounded=0;orthogonalLoop=1;jettySize=auto;html=1;entryX=0.429;entryY=-0.031;entryDx=0;entryDy=0;entryPerimeter=0;fontSize=12;startSize=8;endSize=8;" edge="1" parent="1" source="CaTFyqgx49hb_BPLu5yh-120" target="CaTFyqgx49hb_BPLu5yh-118">
          <mxGeometry relative="1" as="geometry" />
        </mxCell>
        <mxCell id="CaTFyqgx49hb_BPLu5yh-123" style="edgeStyle=none;curved=1;rounded=0;orthogonalLoop=1;jettySize=auto;html=1;exitX=1;exitY=0.5;exitDx=0;exitDy=0;entryX=0.181;entryY=0.033;entryDx=0;entryDy=0;entryPerimeter=0;fontSize=12;startSize=8;endSize=8;" edge="1" parent="1" source="CaTFyqgx49hb_BPLu5yh-114" target="CaTFyqgx49hb_BPLu5yh-115">
          <mxGeometry relative="1" as="geometry" />
        </mxCell>
        <mxCell id="CaTFyqgx49hb_BPLu5yh-124" value="Enrutar solicitudes" style="ellipse;whiteSpace=wrap;html=1;" vertex="1" parent="1">
          <mxGeometry x="510" y="120" width="70" height="50" as="geometry" />
        </mxCell>
        <mxCell id="CaTFyqgx49hb_BPLu5yh-126" value="&amp;lt;ext&amp;gt;" style="text;strokeColor=none;align=center;fillColor=none;html=1;verticalAlign=middle;whiteSpace=wrap;rounded=0;fontSize=12;rotation=-60;" vertex="1" parent="1">
          <mxGeometry x="490" y="190" width="30" height="20" as="geometry" />
        </mxCell>
        <mxCell id="CaTFyqgx49hb_BPLu5yh-128" style="edgeStyle=none;curved=1;rounded=0;orthogonalLoop=1;jettySize=auto;html=1;exitX=1;exitY=0.5;exitDx=0;exitDy=0;entryX=0.192;entryY=0.94;entryDx=0;entryDy=0;entryPerimeter=0;fontSize=12;startSize=8;endSize=8;" edge="1" parent="1" source="CaTFyqgx49hb_BPLu5yh-126" target="CaTFyqgx49hb_BPLu5yh-124">
          <mxGeometry relative="1" as="geometry" />
        </mxCell>
        <mxCell id="CaTFyqgx49hb_BPLu5yh-135" value="" style="edgeStyle=none;curved=1;rounded=0;orthogonalLoop=1;jettySize=auto;html=1;fontSize=12;startSize=8;endSize=8;" edge="1" parent="1" source="CaTFyqgx49hb_BPLu5yh-129" target="CaTFyqgx49hb_BPLu5yh-134">
          <mxGeometry relative="1" as="geometry" />
        </mxCell>
        <mxCell id="CaTFyqgx49hb_BPLu5yh-129" value="Balanceo de carga" style="ellipse;whiteSpace=wrap;html=1;" vertex="1" parent="1">
          <mxGeometry x="400" y="115" width="70" height="55" as="geometry" />
        </mxCell>
        <mxCell id="CaTFyqgx49hb_BPLu5yh-131" value="&amp;lt;ext&amp;gt;" style="text;strokeColor=none;align=center;fillColor=none;html=1;verticalAlign=middle;whiteSpace=wrap;rounded=0;fontSize=12;rotation=-100;" vertex="1" parent="1">
          <mxGeometry x="430" y="190" width="30" height="20" as="geometry" />
        </mxCell>
        <mxCell id="CaTFyqgx49hb_BPLu5yh-133" style="edgeStyle=none;curved=1;rounded=0;orthogonalLoop=1;jettySize=auto;html=1;exitX=1;exitY=0.5;exitDx=0;exitDy=0;entryX=0.567;entryY=1.041;entryDx=0;entryDy=0;entryPerimeter=0;fontSize=12;startSize=8;endSize=8;" edge="1" parent="1" source="CaTFyqgx49hb_BPLu5yh-131" target="CaTFyqgx49hb_BPLu5yh-129">
          <mxGeometry relative="1" as="geometry" />
        </mxCell>
        <mxCell id="CaTFyqgx49hb_BPLu5yh-137" value="" style="edgeStyle=none;curved=1;rounded=0;orthogonalLoop=1;jettySize=auto;html=1;fontSize=12;startSize=8;endSize=8;" edge="1" parent="1" source="CaTFyqgx49hb_BPLu5yh-134" target="CaTFyqgx49hb_BPLu5yh-136">
          <mxGeometry relative="1" as="geometry" />
        </mxCell>
        <mxCell id="CaTFyqgx49hb_BPLu5yh-139" value="" style="edgeStyle=none;curved=1;rounded=0;orthogonalLoop=1;jettySize=auto;html=1;fontSize=12;startSize=8;endSize=8;" edge="1" parent="1" source="CaTFyqgx49hb_BPLu5yh-134" target="CaTFyqgx49hb_BPLu5yh-138">
          <mxGeometry relative="1" as="geometry" />
        </mxCell>
        <mxCell id="CaTFyqgx49hb_BPLu5yh-140" value="" style="edgeStyle=none;curved=1;rounded=0;orthogonalLoop=1;jettySize=auto;html=1;fontSize=12;startSize=8;endSize=8;" edge="1" parent="1" source="CaTFyqgx49hb_BPLu5yh-134" target="CaTFyqgx49hb_BPLu5yh-138">
          <mxGeometry relative="1" as="geometry" />
        </mxCell>
        <mxCell id="CaTFyqgx49hb_BPLu5yh-142" value="" style="edgeStyle=none;curved=1;rounded=0;orthogonalLoop=1;jettySize=auto;html=1;fontSize=12;startSize=8;endSize=8;" edge="1" parent="1" source="CaTFyqgx49hb_BPLu5yh-134" target="CaTFyqgx49hb_BPLu5yh-141">
          <mxGeometry relative="1" as="geometry" />
        </mxCell>
        <mxCell id="CaTFyqgx49hb_BPLu5yh-134" value="Balanceo de carga" style="ellipse;whiteSpace=wrap;html=1;" vertex="1" parent="1">
          <mxGeometry x="440" y="40" width="70" height="55" as="geometry" />
        </mxCell>
        <mxCell id="CaTFyqgx49hb_BPLu5yh-136" value="Round Robin" style="ellipse;whiteSpace=wrap;html=1;" vertex="1" parent="1">
          <mxGeometry x="430" y="-55" width="70" height="55" as="geometry" />
        </mxCell>
        <mxCell id="CaTFyqgx49hb_BPLu5yh-138" value="Least Connections" style="ellipse;whiteSpace=wrap;html=1;" vertex="1" parent="1">
          <mxGeometry x="520" y="-40" width="80" height="50" as="geometry" />
        </mxCell>
        <mxCell id="CaTFyqgx49hb_BPLu5yh-141" value="IP Hash" style="ellipse;whiteSpace=wrap;html=1;" vertex="1" parent="1">
          <mxGeometry x="540" y="20" width="70" height="55" as="geometry" />
        </mxCell>
        <mxCell id="CaTFyqgx49hb_BPLu5yh-148" value="Rate limitng" style="ellipse;whiteSpace=wrap;html=1;" vertex="1" parent="1">
          <mxGeometry x="405" y="370" width="80" height="70" as="geometry" />
        </mxCell>
        <mxCell id="CaTFyqgx49hb_BPLu5yh-149" value="&amp;lt;ext&amp;gt;" style="text;strokeColor=none;align=center;fillColor=none;html=1;verticalAlign=middle;whiteSpace=wrap;rounded=0;fontSize=12;rotation=-75;" vertex="1" parent="1">
          <mxGeometry x="440" y="328.5" width="30" height="20" as="geometry" />
        </mxCell>
        <mxCell id="CaTFyqgx49hb_BPLu5yh-152" style="edgeStyle=none;curved=1;rounded=0;orthogonalLoop=1;jettySize=auto;html=1;entryX=0.5;entryY=0;entryDx=0;entryDy=0;fontSize=12;startSize=8;endSize=8;" edge="1" parent="1" source="CaTFyqgx49hb_BPLu5yh-149" target="CaTFyqgx49hb_BPLu5yh-148">
          <mxGeometry relative="1" as="geometry" />
        </mxCell>
        <mxCell id="CaTFyqgx49hb_BPLu5yh-153" value="Monitoreo y registro" style="ellipse;whiteSpace=wrap;html=1;" vertex="1" parent="1">
          <mxGeometry x="310" y="170" width="75" height="60" as="geometry" />
        </mxCell>
        <mxCell id="CaTFyqgx49hb_BPLu5yh-154" style="edgeStyle=none;curved=1;rounded=0;orthogonalLoop=1;jettySize=auto;html=1;fontSize=12;startSize=8;endSize=8;" edge="1" parent="1" source="CaTFyqgx49hb_BPLu5yh-77">
          <mxGeometry relative="1" as="geometry">
            <mxPoint x="420" y="240" as="targetPoint" />
          </mxGeometry>
        </mxCell>
        <mxCell id="CaTFyqgx49hb_BPLu5yh-156" style="edgeStyle=none;curved=1;rounded=0;orthogonalLoop=1;jettySize=auto;html=1;exitX=0;exitY=0.5;exitDx=0;exitDy=0;fontSize=12;startSize=8;endSize=8;" edge="1" parent="1" source="CaTFyqgx49hb_BPLu5yh-155" target="CaTFyqgx49hb_BPLu5yh-153">
          <mxGeometry relative="1" as="geometry" />
        </mxCell>
        <mxCell id="CaTFyqgx49hb_BPLu5yh-155" value="&amp;lt;ext&amp;gt;" style="text;strokeColor=none;align=center;fillColor=none;html=1;verticalAlign=middle;whiteSpace=wrap;rounded=0;fontSize=12;rotation=30;" vertex="1" parent="1">
          <mxGeometry x="390" y="220" width="30" height="20" as="geometry" />
        </mxCell>
        <mxCell id="CaTFyqgx49hb_BPLu5yh-157" value="CORS" style="ellipse;whiteSpace=wrap;html=1;" vertex="1" parent="1">
          <mxGeometry x="470" y="440" width="70" height="50" as="geometry" />
        </mxCell>
        <mxCell id="CaTFyqgx49hb_BPLu5yh-160" style="edgeStyle=none;curved=1;rounded=0;orthogonalLoop=1;jettySize=auto;html=1;entryX=0.5;entryY=0;entryDx=0;entryDy=0;fontSize=12;startSize=8;endSize=8;" edge="1" parent="1" source="CaTFyqgx49hb_BPLu5yh-159" target="CaTFyqgx49hb_BPLu5yh-157">
          <mxGeometry relative="1" as="geometry" />
        </mxCell>
        <mxCell id="CaTFyqgx49hb_BPLu5yh-159" value="&amp;lt;ext&amp;gt;" style="text;strokeColor=none;align=center;fillColor=none;html=1;verticalAlign=middle;whiteSpace=wrap;rounded=0;fontSize=12;rotation=75;" vertex="1" parent="1">
          <mxGeometry x="480" y="380" width="30" height="20" as="geometry" />
        </mxCell>
      </root>
    </mxGraphModel>
  </diagram>
</mxfile>
